<svg width="25" height="25" viewBox="0 0 25 25" fill="none" xmlns="http://www.w3.org/2000/svg">
<path d="M8.63388 17.1995L12.5001 13.3333L16.3662 17.1995L17.1996 16.3662L13.3334 12.5L17.1996 8.63382L16.3662 7.80049L12.5001 11.6667L8.63388 7.80049L7.80055 8.63382L11.6667 12.5L7.80055 16.3662L8.63388 17.1995ZM12.5018 22.3958C11.1438 22.3958 9.86431 22.1361 8.66334 21.6166C7.46236 21.0972 6.41211 20.3879 5.51258 19.4888C4.61303 18.5896 3.90342 17.5398 3.38375 16.3394C2.86408 15.1389 2.60425 13.8597 2.60425 12.5017C2.60425 11.1331 2.86397 9.84657 3.38341 8.64226C3.90286 7.43794 4.61215 6.39035 5.51128 5.4995C6.41043 4.60863 7.46022 3.90336 8.66065 3.38369C9.86111 2.86402 11.1403 2.60419 12.4983 2.60419C13.867 2.60419 15.1535 2.86391 16.3578 3.38335C17.5621 3.9028 18.6097 4.60775 19.5006 5.4982C20.3914 6.38867 21.0967 7.43579 21.6164 8.63958C22.136 9.84335 22.3959 11.1296 22.3959 12.4982C22.3959 13.8563 22.1361 15.1357 21.6167 16.3367C21.0973 17.5377 20.3923 18.5879 19.5019 19.4875C18.6114 20.387 17.5643 21.0966 16.3605 21.6163C15.1567 22.136 13.8705 22.3958 12.5018 22.3958ZM12.5001 21.2139C14.9253 21.2139 16.9839 20.3652 18.6759 18.6679C20.368 16.9705 21.214 14.9145 21.214 12.5C21.214 10.0748 20.368 8.01616 18.6759 6.32411C16.9839 4.63208 14.9253 3.78606 12.5001 3.78606C10.0855 3.78606 8.02957 4.63208 6.33219 6.32411C4.63481 8.01616 3.78612 10.0748 3.78612 12.5C3.78612 14.9145 4.63481 16.9705 6.33219 18.6679C8.02957 20.3652 10.0855 21.2139 12.5001 21.2139Z" fill="black"/>
</svg>
