<svg width="25" height="25" viewBox="0 0 25 25" fill="none" xmlns="http://www.w3.org/2000/svg">
<path d="M15.01 22.3958V21.2139H19.8517C19.9319 21.2139 20.0053 21.1805 20.0721 21.1138C20.1389 21.047 20.1723 20.9735 20.1723 20.8934V10.5469H4.82774V15.7953H3.64587V5.80935C3.64587 5.40086 3.79415 5.04833 4.09071 4.75177C4.38728 4.45521 4.7398 4.30693 5.14829 4.30693H7.07136V2.48401H8.38345V4.30693H16.6567V2.48401H17.9387V4.30693H19.8517C20.2602 4.30693 20.6127 4.45521 20.9093 4.75177C21.2059 5.04833 21.3542 5.40086 21.3542 5.80935V20.8934C21.3542 21.3019 21.2059 21.6544 20.9093 21.951C20.6127 22.2475 20.2602 22.3958 19.8517 22.3958H15.01ZM8.33334 24.3648L7.51004 23.5417L10.6331 20.3826H1.49243V19.2007H10.6331L7.51004 16.0417L8.33334 15.2184L12.9067 19.7917L8.33334 24.3648ZM4.82774 9.36505H20.1723V5.80935C20.1723 5.72921 20.1389 5.65575 20.0721 5.58896C20.0053 5.52219 19.9319 5.4888 19.8517 5.4888H5.14829C5.06815 5.4888 4.99469 5.52219 4.9279 5.58896C4.86113 5.65575 4.82774 5.72921 4.82774 5.80935V9.36505Z" fill="black"/>
</svg>
