<svg width="15" height="15" viewBox="0 0 15 15" fill="none" xmlns="http://www.w3.org/2000/svg">
<path d="M7.50311 9.62137C8.17643 9.62137 8.74986 9.38352 9.22341 8.9078C9.69696 8.43207 9.93374 7.85755 9.93374 7.18425C9.93374 6.51094 9.69588 5.9375 9.22016 5.46395C8.74443 4.9904 8.16992 4.75362 7.49661 4.75362C6.8233 4.75362 6.24987 4.99148 5.77632 5.4672C5.30276 5.94293 5.06599 6.51745 5.06599 7.19075C5.06599 7.86406 5.30385 8.43749 5.77957 8.91105C6.2553 9.3846 6.82981 9.62137 7.50311 9.62137ZM7.49513 8.91947C7.01271 8.91947 6.60423 8.75062 6.26969 8.41294C5.93516 8.07524 5.76789 7.66518 5.76789 7.18277C5.76789 6.70035 5.93674 6.29187 6.27443 5.95733C6.61212 5.6228 7.02218 5.45553 7.5046 5.45553C7.98702 5.45553 8.39549 5.62437 8.73004 5.96206C9.06457 6.29976 9.23183 6.70982 9.23183 7.19223C9.23183 7.67465 9.06299 8.08313 8.7253 8.41767C8.3876 8.7522 7.97755 8.91947 7.49513 8.91947ZM7.50072 11.5625C6.06746 11.5625 4.7663 11.1612 3.59724 10.3588C2.42817 9.55628 1.54956 8.49919 0.961426 7.1875C1.54956 5.87581 2.42788 4.81872 3.59638 4.01623C4.76487 3.21375 6.06574 2.81252 7.499 2.81252C8.93227 2.81252 10.2334 3.21375 11.4025 4.01623C12.5716 4.81872 13.4502 5.87581 14.0383 7.1875C13.4502 8.49919 12.5718 9.55628 11.4033 10.3588C10.2349 11.1612 8.93398 11.5625 7.50072 11.5625ZM7.49722 10.8534C8.73937 10.8534 9.87907 10.5212 10.9163 9.85697C11.9536 9.19271 12.7442 8.30289 13.2883 7.1875C12.7442 6.07211 11.9545 5.18229 10.919 4.51803C9.88346 3.85377 8.74464 3.52164 7.5025 3.52164C6.26036 3.52164 5.12066 3.85377 4.0834 4.51803C3.04614 5.18229 2.25228 6.07211 1.7018 7.1875C2.25228 8.30289 3.04527 9.19271 4.08077 9.85697C5.11627 10.5212 6.25509 10.8534 7.49722 10.8534Z" fill="#525252"/>
</svg>
