<svg width="25" height="25" viewBox="0 0 25 25" fill="none" xmlns="http://www.w3.org/2000/svg">
<path d="M20.1722 19.8517V15.9936H4.82763V19.8517C4.82763 19.9452 4.85768 20.022 4.91778 20.0821C4.97789 20.1422 5.05468 20.1723 5.14817 20.1723H19.8516C19.9451 20.1723 20.0219 20.1422 20.082 20.0821C20.1421 20.022 20.1722 19.9452 20.1722 19.8517ZM20.1722 14.8117V10.1883H4.82763V14.8117H20.1722ZM20.1722 9.00645V5.1483C20.1722 5.05481 20.1421 4.97801 20.082 4.9179C20.0219 4.8578 19.9451 4.82775 19.8516 4.82775H5.14817C5.05468 4.82775 4.97789 4.8578 4.91778 4.9179C4.85768 4.97801 4.82763 5.05481 4.82763 5.1483V9.00645H20.1722ZM5.14817 21.3542C4.73968 21.3542 4.38716 21.2059 4.0906 20.9093C3.79403 20.6128 3.64575 20.2602 3.64575 19.8517V5.1483C3.64575 4.73981 3.79403 4.38728 4.0906 4.09072C4.38716 3.79415 4.73968 3.64587 5.14817 3.64587H19.8516C20.2601 3.64587 20.6126 3.79415 20.9092 4.09072C21.2058 4.38728 21.354 4.73981 21.354 5.1483V19.8517C21.354 20.2602 21.2058 20.6128 20.9092 20.9093C20.6126 21.2059 20.2601 21.3542 19.8516 21.3542H5.14817Z" fill="black"/>
</svg>
