<svg width="25" height="25" viewBox="0 0 25 25" fill="none" xmlns="http://www.w3.org/2000/svg">
<path d="M12.5 17.1219C8.75239 17.1375 5.62036 19.7539 4.81489 23.2594L4.80474 23.3125C4.79614 23.35 4.79146 23.393 4.79146 23.4375C4.79146 23.7609 5.05396 24.0234 5.37739 24.0234C5.6563 24.0234 5.88989 23.8281 5.94849 23.5664L5.94927 23.5625C6.63286 20.5273 9.3063 18.2938 12.5008 18.2938C15.6954 18.2938 18.3688 20.5273 19.0438 23.518L19.0524 23.5625C19.1118 23.8281 19.3446 24.0234 19.6243 24.0234H19.625C19.6696 24.0234 19.7125 24.018 19.754 24.0086L19.75 24.0094C20.0157 23.95 20.211 23.7164 20.211 23.4367C20.211 23.3922 20.2063 23.3492 20.1969 23.3078L20.1977 23.3117C19.3813 19.7539 16.2485 17.1375 12.5032 17.1211H12.5016L12.5 17.1219ZM7.15942 8.28281C9.17661 8.28281 10.8125 6.64766 10.8125 4.62969C10.8125 2.61172 9.17739 0.976562 7.15942 0.976562C5.14224 0.976562 3.5063 2.61172 3.5063 4.62969C3.50864 6.64609 5.1438 8.28047 7.15942 8.28281ZM7.15942 2.14844C8.52974 2.14844 9.64067 3.25938 9.64067 4.62969C9.64067 6 8.52974 7.11094 7.15942 7.11094C5.78911 7.11094 4.67817 6 4.67817 4.62969C4.67974 3.26016 5.79067 2.15 7.15942 2.14844ZM17.911 8.28281C19.9282 8.28281 21.5641 6.64766 21.5641 4.62969C21.5641 2.61172 19.929 0.976562 17.911 0.976562C15.8938 0.976562 14.2579 2.61172 14.2579 4.62969C14.2602 6.64609 15.8946 8.28047 17.9102 8.28281H17.911ZM17.911 2.14844C19.2813 2.14844 20.3922 3.25938 20.3922 4.62969C20.3922 6 19.2813 7.11094 17.911 7.11094C16.5407 7.11094 15.4297 6 15.4297 4.62969C15.4313 3.26016 16.5415 2.15 17.911 2.14844ZM24.0797 15.5C23.3938 12.4578 20.7141 10.2195 17.5126 10.2195C17.1821 10.2195 16.8571 10.2437 16.5391 10.2891L16.575 10.2844C16.5368 10.2937 16.5032 10.3063 16.4711 10.3211L16.4743 10.3195C15.8875 8.65625 14.3297 7.48594 12.4985 7.48594C10.675 7.48594 9.12271 8.64609 8.53911 10.268L8.52974 10.2977C8.51646 10.2945 8.5063 10.2867 8.49302 10.2844C8.21255 10.243 7.88911 10.2188 7.55942 10.2188C7.55786 10.2188 7.55552 10.2188 7.55396 10.2188C4.35708 10.2328 1.68599 12.4641 0.997705 15.4539L0.989111 15.4992C0.980518 15.5367 0.97583 15.5797 0.97583 15.6242C0.97583 15.9477 1.23833 16.2102 1.56177 16.2102C1.84067 16.2102 2.07427 16.0148 2.13286 15.7531L2.13364 15.7492C2.70942 13.2438 4.91489 11.4016 7.55317 11.3906H7.55474C7.81646 11.3906 8.07349 11.4094 8.32427 11.4453L8.29536 11.4422C8.28911 11.5352 8.26724 11.6234 8.26724 11.7188C8.27192 14.0523 10.1649 15.9422 12.4993 15.9422C14.8336 15.9422 16.7266 14.0523 16.7305 11.7188V11.718C16.7305 11.6242 16.7086 11.5359 16.7024 11.443C16.7149 11.4414 16.7266 11.4469 16.7391 11.4437C16.9688 11.4094 17.2344 11.3906 17.5047 11.3906C17.5079 11.3906 17.5102 11.3906 17.5133 11.3906C20.1532 11.4008 22.3586 13.243 22.9266 15.7117L22.9336 15.7492C22.993 16.0148 23.2266 16.2094 23.5055 16.2102C23.5501 16.2102 23.593 16.2047 23.6344 16.1953L23.6305 16.1961C23.8961 16.1367 24.0915 15.9031 24.0915 15.6234C24.0915 15.5789 24.0868 15.5359 24.0774 15.4945L24.0782 15.4984L24.0797 15.5ZM12.5 14.7781C12.5 14.7781 12.5 14.7781 12.4993 14.7781C10.8094 14.7781 9.43911 13.4086 9.43911 11.718C9.43911 10.0273 10.8094 8.65781 12.4993 8.65781C14.1891 8.65781 15.5594 10.0281 15.5594 11.718C15.5594 11.718 15.5594 11.718 15.5594 11.7188C15.5571 13.4078 14.1891 14.7758 12.5 14.7781Z" fill="black"/>
</svg>
