<svg width="22" height="23" viewBox="0 0 22 23" fill="none" xmlns="http://www.w3.org/2000/svg">
<path d="M1.61133 18.1987V16.4588C1.61133 15.977 1.73561 15.5507 1.98418 15.1799C2.23272 14.8091 2.58071 14.5253 3.02815 14.3286C4.02034 13.8931 4.92658 13.5684 5.74687 13.3545C6.56716 13.1406 7.48178 13.0337 8.49071 13.0337C9.49964 13.0337 10.4104 13.1406 11.2231 13.3545C12.0357 13.5684 12.9411 13.8931 13.9392 14.3286C14.3807 14.5253 14.7281 14.8091 14.9814 15.1799C15.2346 15.5507 15.3613 15.977 15.3613 16.4588V18.1987H1.61133ZM16.8597 18.1987V16.4852C16.8597 15.6697 16.6697 14.9893 16.2899 14.4441C15.91 13.8989 15.4136 13.4528 14.8007 13.1059C15.614 13.2223 16.3867 13.3812 17.1188 13.5828C17.851 13.7843 18.4633 14.0115 18.956 14.2643C19.3894 14.5074 19.7365 14.8199 19.9974 15.2016C20.2583 15.5833 20.3888 16.0112 20.3888 16.4852V18.1987H16.8597ZM8.49071 11.2038C7.60548 11.2038 6.87663 10.9176 6.30416 10.3451C5.7317 9.77263 5.44547 9.04379 5.44547 8.15858C5.44547 7.27336 5.7317 6.54597 6.30416 5.97643C6.87663 5.40691 7.60548 5.12215 8.49071 5.12215C9.37593 5.12215 10.1033 5.40691 10.6728 5.97643C11.2424 6.54597 11.5271 7.27336 11.5271 8.15858C11.5271 9.04379 11.2424 9.77263 10.6728 10.3451C10.1033 10.9176 9.37593 11.2038 8.49071 11.2038ZM15.7314 8.15858C15.7314 9.04379 15.4466 9.77263 14.8771 10.3451C14.3076 10.9176 13.5792 11.2038 12.6918 11.2038C12.5876 11.2038 12.4764 11.1968 12.3583 11.1827C12.2402 11.1686 12.1295 11.1427 12.026 11.1051C12.3535 10.7481 12.6019 10.3194 12.7714 9.8191C12.9408 9.3188 13.0255 8.76639 13.0255 8.16188C13.0255 7.55739 12.9374 7.01804 12.7611 6.54385C12.5848 6.06966 12.3398 5.62573 12.026 5.21205C12.1236 5.18971 12.2343 5.16915 12.3583 5.15036C12.4823 5.13155 12.593 5.12215 12.6906 5.12215C13.5787 5.12215 14.3076 5.40691 14.8771 5.97643C15.4466 6.54597 15.7314 7.27336 15.7314 8.15858ZM2.65138 17.1586H14.3212V16.4588C14.3212 16.2143 14.2516 15.9849 14.1123 15.7704C13.9731 15.5559 13.773 15.3852 13.5121 15.2583C12.5531 14.8106 11.7081 14.5012 10.9772 14.3302C10.2462 14.1592 9.41736 14.0737 8.49071 14.0737C7.56405 14.0737 6.73287 14.1592 5.99719 14.3302C5.2615 14.5012 4.41418 14.8106 3.45523 15.2583C3.19433 15.3852 2.99513 15.5559 2.85763 15.7704C2.72013 15.9849 2.65138 16.2143 2.65138 16.4588V17.1586ZM8.48631 10.1638C9.05863 10.1638 9.53517 9.9734 9.91594 9.59262C10.2967 9.21185 10.4871 8.7353 10.4871 8.16298C10.4871 7.59066 10.2967 7.11412 9.91594 6.73335C9.53517 6.35258 9.05863 6.1622 8.48631 6.1622C7.91397 6.1622 7.43742 6.35258 7.05665 6.73335C6.67588 7.11412 6.4855 7.59066 6.4855 8.16298C6.4855 8.7353 6.67588 9.21185 7.05665 9.59262C7.43742 9.9734 7.91397 10.1638 8.48631 10.1638Z" fill="white"/>
</svg>
